<?xml version="1.0" encoding="UTF-8" standalone="no"?>
<!DOCTYPE svg PUBLIC "-//W3C//DTD SVG 1.1//EN" "http://www.w3.org/Graphics/SVG/1.1/DTD/svg11.dtd">
<svg width="100%" height="100%" viewBox="0 0 31 28" version="1.1" xmlns="http://www.w3.org/2000/svg" xmlns:xlink="http://www.w3.org/1999/xlink" xml:space="preserve" xmlns:serif="http://www.serif.com/" style="fill-rule:evenodd;clip-rule:evenodd;stroke-linejoin:round;stroke-miterlimit:2;">
    <g transform="matrix(-1.59408,0,0,1.59408,1013.27,-876.482)">
        <path d="M625.648,559.491L625.648,565.743C625.648,566.089 625.762,566.37 625.989,566.585C626.215,566.791 626.48,566.904 626.782,566.926C627.095,566.936 627.376,566.823 627.625,566.585L635.286,559.216C635.524,558.989 635.642,558.708 635.642,558.373C635.642,558.039 635.524,557.758 635.286,557.531L627.625,550.161C627.376,549.924 627.095,549.816 626.782,549.837C626.48,549.848 626.215,549.961 625.989,550.177C625.762,550.382 625.648,550.658 625.648,551.003L625.648,557.256L618.295,550.161C618.046,549.924 617.766,549.816 617.452,549.837C617.15,549.848 616.886,549.961 616.659,550.177C616.432,550.382 616.319,550.658 616.319,551.003L616.319,565.743C616.319,566.089 616.432,566.37 616.659,566.585C616.886,566.791 617.15,566.904 617.452,566.926C617.766,566.936 618.046,566.823 618.295,566.585L625.648,559.491Z" style="fill:rgb(178,94,94);fill-rule:nonzero;"/>
    </g>
</svg>
