<?xml version="1.0" encoding="UTF-8" standalone="no"?>
<!DOCTYPE svg PUBLIC "-//W3C//DTD SVG 1.1//EN" "http://www.w3.org/Graphics/SVG/1.1/DTD/svg11.dtd">
<svg width="100%" height="100%" viewBox="0 0 25 28" version="1.1" xmlns="http://www.w3.org/2000/svg" xmlns:xlink="http://www.w3.org/1999/xlink" xml:space="preserve" xmlns:serif="http://www.serif.com/" style="fill-rule:evenodd;clip-rule:evenodd;stroke-linejoin:round;stroke-miterlimit:2;">
    <g transform="matrix(1.66544,0,0,1.66544,-1103.84,-916.314)">
        <path d="M664.241,550.193L667.697,550.193C668.021,550.193 668.297,550.312 668.524,550.55C668.75,550.777 668.864,551.052 668.864,551.376L668.864,565.371C668.864,565.695 668.75,565.975 668.524,566.213C668.297,566.44 668.021,566.553 667.697,566.553L664.241,566.553C663.839,566.553 663.498,566.44 663.216,566.213C662.935,565.975 662.794,565.695 662.794,565.371L662.794,551.376C662.794,551.052 662.935,550.777 663.216,550.55C663.498,550.312 663.839,550.193 664.241,550.193ZM672.362,550.193L675.819,550.193C676.221,550.193 676.562,550.312 676.844,550.55C677.125,550.777 677.266,551.052 677.266,551.376L677.266,565.371C677.266,565.695 677.125,565.975 676.844,566.213C676.562,566.44 676.221,566.553 675.819,566.553L672.362,566.553C672.038,566.553 671.763,566.44 671.536,566.213C671.31,565.975 671.196,565.695 671.196,565.371L671.196,551.376C671.196,551.052 671.31,550.777 671.536,550.55C671.763,550.312 672.038,550.193 672.362,550.193Z" style="fill:rgb(178,94,94);"/>
    </g>
</svg>
